<?xml version="1.0" encoding="iso-8859-1"?>
<!-- Generator: Adobe Illustrator 19.0.0, SVG Export Plug-In . SVG Version: 6.00 Build 0)  -->
<svg version="1.1" id="Capa_1" xmlns="http://www.w3.org/2000/svg" xmlns:xlink="http://www.w3.org/1999/xlink" x="0px" y="0px"
	 viewBox="0 0 512 512" style="enable-background:new 0 0 512 512;" xml:space="preserve">
<circle style="fill:#E1E1E3;" cx="256" cy="256" r="256"/>
<path style="fill:#C8C6CC;" d="M512,256c0-5.697-0.206-11.345-0.572-16.95L372.853,100.476
	C343.631,69.311,302.093,49.833,256,49.833c-88.458,0-160.167,71.709-160.167,160.167c0,46.095,19.477,87.635,50.646,116.854
	l69.967,70.083l39.552,65.23l45.752,45.752C421.304,486.349,512,381.768,512,256z"/>
<polygon style="fill:#C2001B;" points="335.352,331.3 176.648,331.3 255.998,462.167 "/>
<polygon style="fill:#990011;" points="335.35,331.3 319.79,356.96 256,462.17 256,331.3 "/>
<circle style="fill:#E02424;" cx="256" cy="210" r="160.17"/>
<path style="fill:#C2001B;" d="M416.17,210c0,65.79-39.66,122.31-96.38,146.96c-19.55,8.5-41.12,13.21-63.79,13.21V49.83
	C344.46,49.83,416.17,121.54,416.17,210z"/>
<circle style="fill:#FFFFFF;" cx="256" cy="210" r="104.33"/>
<path style="fill:#54FBFF;" d="M360.333,210c0,57.624-46.709,104.333-104.333,104.333V105.667
	C313.624,105.667,360.333,152.376,360.333,210z"/>
<polygon style="fill:#FEC000;" points="256.002,130.14 279.262,179.675 333.561,186.49 293.638,223.92 303.936,277.667 
	256.002,251.264 208.067,277.667 218.365,223.92 178.442,186.49 232.741,179.675 "/>
<polygon style="fill:#FF8900;" points="303.936,277.667 293.638,223.92 333.561,186.49 279.262,179.675 256.002,130.14 256,130.144 
	256,251.265 256.002,251.264 "/>
<g>
</g>
<g>
</g>
<g>
</g>
<g>
</g>
<g>
</g>
<g>
</g>
<g>
</g>
<g>
</g>
<g>
</g>
<g>
</g>
<g>
</g>
<g>
</g>
<g>
</g>
<g>
</g>
<g>
</g>
</svg>
